<svg width="12" height="12" viewBox="0 0 12 12" fill="none" xmlns="http://www.w3.org/2000/svg">
<path d="M6.47145 4.58579L6.00005 5.0572L5.52864 4.58579C5.26829 4.32544 5.26829 3.90333 5.52864 3.64298L8.35707 0.814555C8.61742 0.554206 9.03953 0.554206 9.29988 0.814555L11.1855 2.70017C11.4458 2.96052 11.4458 3.38263 11.1855 3.64298L8.35707 6.47141C8.09672 6.73176 7.67461 6.73176 7.41426 6.47141L6.94285 6.00001L7.41426 5.5286L7.88566 6.00001L10.7141 3.17158L8.82847 1.28596L6.00005 4.11439L6.47145 4.58579Z" fill="#575757"/>
<path d="M5.52894 7.41421L6.00034 6.9428L6.47175 7.41421C6.73209 7.67456 6.73209 8.09667 6.47175 8.35702L3.64332 11.1854C3.38297 11.4458 2.96086 11.4458 2.70051 11.1854L0.814891 9.29983C0.554542 9.03948 0.554542 8.61737 0.814891 8.35702L3.64332 5.52859C3.90367 5.26824 4.32578 5.26824 4.58613 5.52859L5.05753 6L4.58613 6.4714L4.11472 6L1.2863 8.82842L3.17191 10.714L6.00034 7.88561L5.52894 7.41421Z" fill="#575757"/>
<path d="M7.41451 4.5858C7.28434 4.45562 7.07328 4.45562 6.94311 4.5858L4.58608 6.94282C4.45591 7.07299 4.45591 7.28405 4.58608 7.41422C4.71626 7.5444 4.92731 7.5444 5.05749 7.41422L7.41451 5.0572C7.54469 4.92703 7.54469 4.71597 7.41451 4.5858Z" fill="#575757"/>
</svg>
