<svg width="16" height="12" viewBox="0 0 16 12" fill="none" xmlns="http://www.w3.org/2000/svg">
<path fill-rule="evenodd" clip-rule="evenodd" d="M14 0H2C0.89543 0 0 0.89543 0 2V10C0 11.1046 0.89543 12 2 12H14C15.1046 12 16 11.1046 16 10V2C16 0.89543 15.1046 0 14 0ZM1 2C1 1.44772 1.44772 1 2 1H14C14.5523 1 15 1.44772 15 2V10C15 10.5523 14.5523 11 14 11H2C1.44772 11 1 10.5523 1 10V2Z" fill="#575757"/>
<path fill-rule="evenodd" clip-rule="evenodd" d="M5.07943 6.41101H6.82413V8.47616C6.57264 8.65973 6.30487 8.79292 6.02082 8.87576C5.73678 8.95859 5.43982 9 5.12995 9C4.72577 9 4.35809 8.93676 4.02689 8.81028C3.69569 8.68379 3.4122 8.50918 3.17643 8.28643C2.94066 8.06369 2.75878 7.79953 2.63079 7.49396C2.5028 7.18838 2.43881 6.85651 2.43881 6.49832C2.43881 6.13342 2.49944 5.79819 2.62069 5.49261C2.74194 5.18704 2.9154 4.92344 3.14107 4.70181C3.36673 4.48019 3.63955 4.30781 3.95952 4.18469C4.2795 4.06156 4.63708 4 5.03228 4C5.23661 4 5.42859 4.01679 5.60823 4.05037C5.78786 4.08395 5.95346 4.12984 6.10503 4.18805C6.2566 4.24625 6.39525 4.31565 6.52099 4.39624C6.64674 4.47683 6.75901 4.56414 6.85781 4.65816L6.52773 5.1585C6.47608 5.23685 6.40928 5.28498 6.32733 5.30289C6.24537 5.3208 6.15724 5.30065 6.06293 5.24244C5.97311 5.18872 5.88835 5.14227 5.80863 5.10309C5.72892 5.06391 5.64752 5.03201 5.56444 5.00739C5.48136 4.98276 5.39379 4.96485 5.30173 4.95366C5.20966 4.94247 5.10638 4.93687 4.99186 4.93687C4.77854 4.93687 4.58656 4.97437 4.41591 5.04936C4.24525 5.12436 4.09986 5.23013 3.97973 5.36669C3.8596 5.50325 3.76698 5.66723 3.70186 5.85863C3.63674 6.05003 3.60419 6.26326 3.60419 6.49832C3.60419 6.758 3.64011 6.98858 3.71197 7.19006C3.78382 7.39154 3.88543 7.56167 4.01678 7.70047C4.14814 7.83927 4.30532 7.94504 4.48832 8.0178C4.67133 8.09055 4.87397 8.12693 5.09627 8.12693C5.23324 8.12693 5.3573 8.1135 5.46845 8.08664C5.5796 8.05977 5.68794 8.02395 5.79348 7.97918V7.23707H5.30846C5.23661 7.23707 5.18048 7.21804 5.14006 7.17999C5.09964 7.14193 5.07943 7.0938 5.07943 7.03559V6.41101ZM9.093 8.94626H7.94783V4.05371H9.093V8.94626ZM11.5474 6.16587V4.92678H13.5615V4.05371H10.4022V8.94626H11.5474V7.0423H13.2247V6.16587H11.5474Z" fill="#575757"/>
</svg>
