<svg width="14" height="12" viewBox="0 0 14 12" fill="none" xmlns="http://www.w3.org/2000/svg">
<path fill-rule="evenodd" clip-rule="evenodd" d="M2 0H12C13.1046 0 14 0.89543 14 2V10C14 11.0985 13.1144 11.9901 12.0183 11.9999L12.0001 12H12H6.00008H2C0.89543 12 0 11.1046 0 10V2C0 0.89543 0.89543 0 2 0ZM13 9.27479L10.4045 5.70591C10.2048 5.43136 9.79539 5.43136 9.59572 5.70591L5.74547 11H2C1.44772 11 1 10.5523 1 10V2C1 1.44772 1.44772 1 2 1H12C12.5523 1 13 1.44772 13 2V9.27479ZM12 11C12.3001 11 12.5758 10.8667 12.762 10.6479L9.99995 6.85009L6.98184 11H12ZM5 7C6.10457 7 7 6.10457 7 5C7 3.89543 6.10457 3 5 3C3.89543 3 3 3.89543 3 5C3 6.10457 3.89543 7 5 7ZM5 6C4.44772 6 4 5.55228 4 5C4 4.44772 4.44772 4 5 4C5.55228 4 6 4.44772 6 5C6 5.55228 5.55228 6 5 6Z" fill="#575757"/>
</svg>
