<svg width="16" height="12" viewBox="0 0 16 12" fill="none" xmlns="http://www.w3.org/2000/svg">
<path fill-rule="evenodd" clip-rule="evenodd" d="M14 0H2C0.89543 0 0 0.89543 0 2V10C0 11.1046 0.89543 12 2 12H14C15.1046 12 16 11.1046 16 10V2C16 0.89543 15.1046 0 14 0ZM1 2C1 1.44772 1.44772 1 2 1H14C14.5523 1 15 1.44772 15 2V10C15 10.5523 14.5523 11 14 11H2C1.44772 11 1 10.5523 1 10V2Z" fill="#575757"/>
<path d="M2 8.46098V3.5H4.11716C4.35487 3.5 4.5721 3.54884 4.77052 3.64671C4.96847 3.74448 5.13843 3.87246 5.2806 4.03056C5.42276 4.18922 5.53416 4.36836 5.61608 4.5691C5.69736 4.76928 5.73832 4.97177 5.73832 5.17705C5.73832 5.39594 5.69967 5.6053 5.62285 5.80603C5.54602 6.00621 5.43861 6.18535 5.30154 6.34401C5.16392 6.50211 4.99729 6.62834 4.80165 6.72101C4.60611 6.81424 4.38944 6.86095 4.15172 6.86095H3.14574V8.46116L2 8.46098ZM3.14583 5.86164H4.08185C4.21715 5.86164 4.33374 5.80362 4.4316 5.68704C4.52938 5.57036 4.57831 5.40039 4.57831 5.17686C4.57831 5.06027 4.56292 4.96019 4.5328 4.87604C4.50268 4.79254 4.46172 4.72257 4.41057 4.66678C4.35941 4.61052 4.30084 4.57012 4.23597 4.54454C4.17054 4.51896 4.1052 4.50589 4.04042 4.50589H3.14592L3.14583 5.86164Z" fill="#575757"/>
<path d="M6.05541 8.46098V3.5H7.90697C8.31705 3.5 8.67579 3.56478 8.98283 3.69555C9.29051 3.82575 9.54759 4.00258 9.75509 4.2262C9.96203 4.4502 10.1185 4.71182 10.2232 5.01255C10.3284 5.31282 10.3806 5.63356 10.3806 5.97303C10.3806 6.35059 10.3221 6.69182 10.206 6.99727C10.0895 7.30208 9.92283 7.56305 9.70616 7.77973C9.48948 7.9964 9.22851 8.16405 8.9237 8.28295C8.61834 8.40186 8.27942 8.46098 7.90687 8.46098H6.05541ZM9.21377 5.97303C9.21377 5.75469 9.18421 5.55507 9.12619 5.37602C9.06818 5.19679 8.98283 5.04165 8.87143 4.91135C8.75939 4.78058 8.62176 4.68049 8.45912 4.61052C8.29592 4.54055 8.11168 4.50589 7.90697 4.50589H7.20124V7.45499H7.90697C8.11687 7.45499 8.30278 7.41746 8.46598 7.34295C8.62918 7.26844 8.76514 7.16492 8.87486 7.03193C8.98403 6.89941 9.06818 6.74307 9.12619 6.56393C9.18421 6.38479 9.21377 6.18748 9.21377 5.97303Z" fill="#575757"/>
<path d="M10.6324 8.46098V3.5H14V4.50589H11.7782V5.57499H13.6087V6.50415H11.7782V8.46089L10.6324 8.46098Z" fill="#575757"/>
</svg>
