<svg width="12" height="12" viewBox="0 0 12 12" fill="none" xmlns="http://www.w3.org/2000/svg">
<path d="M3.5 3.25C3.5 3.66421 3.16421 4 2.75 4C2.33579 4 2 3.66421 2 3.25C2 2.83579 2.33579 2.5 2.75 2.5C3.16421 2.5 3.5 2.83579 3.5 3.25Z" fill="#575757"/>
<path fill-rule="evenodd" clip-rule="evenodd" d="M6 0.5H2C0.89543 0.5 0 1.39543 0 2.5V9.5C0 10.6046 0.89543 11.5 2 11.5H6C7.10457 11.5 8 10.6046 8 9.5V8.89999L10.6286 9.95143C10.7467 9.99868 10.8728 10.023 11 10.023C11.5523 10.023 12 9.57524 12 9.02296V2.97702C12 2.8498 11.9757 2.72375 11.9285 2.60563C11.7234 2.09285 11.1414 1.84343 10.6286 2.04855L8 3.09999V2.5C8 1.39543 7.10457 0.5 6 0.5ZM8 4.17702V7.82295L11 9.02295V2.97702L8 4.17702ZM7 2.5C7 1.94772 6.55228 1.5 6 1.5H2C1.44772 1.5 1 1.94772 1 2.5V9.5C1 10.0523 1.44772 10.5 2 10.5H6C6.55228 10.5 7 10.0523 7 9.5V2.5Z" fill="#575757"/>
</svg>
